<?xml version="1.0" encoding="UTF-8" standalone="no"?>
<!-- Created with matplotlib (http://matplotlib.org/) -->

<svg
   xmlns:dc="http://purl.org/dc/elements/1.1/"
   xmlns:cc="http://creativecommons.org/ns#"
   xmlns:rdf="http://www.w3.org/1999/02/22-rdf-syntax-ns#"
   xmlns:svg="http://www.w3.org/2000/svg"
   xmlns="http://www.w3.org/2000/svg"
   xmlns:sodipodi="http://sodipodi.sourceforge.net/DTD/sodipodi-0.dtd"
   xmlns:inkscape="http://www.inkscape.org/namespaces/inkscape"
   height="210mm"
   version="1.1"
   viewBox="0 0 595.27559 595.27559"
   width="210mm"
   id="svg2"
   inkscape:version="0.91 r"
   sodipodi:docname="logo.svg"
   inkscape:export-filename="/home/adrian/.qgis2/python/plugins/diagram/logo.png"
   inkscape:export-xdpi="2.9028571"
   inkscape:export-ydpi="2.9028571">
  <metadata
     id="metadata34">
    <rdf:RDF>
      <cc:Work
         rdf:about="">
        <dc:format>image/svg+xml</dc:format>
        <dc:type
           rdf:resource="http://purl.org/dc/dcmitype/StillImage" />
        <dc:title></dc:title>
      </cc:Work>
    </rdf:RDF>
  </metadata>
  <sodipodi:namedview
     pagecolor="#ffffff"
     bordercolor="#666666"
     borderopacity="1"
     objecttolerance="10"
     gridtolerance="10"
     guidetolerance="10"
     inkscape:pageopacity="0"
     inkscape:pageshadow="2"
     inkscape:window-width="1391"
     inkscape:window-height="876"
     id="namedview32"
     showgrid="false"
     inkscape:zoom="0.92461376"
     inkscape:cx="372.04724"
     inkscape:cy="372.04724"
     inkscape:window-x="49"
     inkscape:window-y="24"
     inkscape:window-maximized="1"
     inkscape:current-layer="svg2"
     units="mm"
     width="210mm" />
  <defs
     id="defs4"
     style="stroke-linecap:butt;stroke-linejoin:round">
    <style
       type="text/css"
       id="style6">
*{stroke-linecap:butt;stroke-linejoin:round;}
  </style>
  </defs>
  <g
     id="patch_2"
     style="stroke-linecap:butt;stroke-linejoin:round"
     transform="matrix(1.4407823,0,0,1.4407823,-125.6618,-15.513081)">
    <path
       clip-path="url(#p7ff5b81e1d)"
       d="m 294.443,43.2 c -30.455,0 -60.371,8.0943 -86.671,23.451 -26.301,15.3567 -48.053,37.431 -63.022,63.954 -14.969,26.523 -22.624,56.554 -22.177,87.007 0.448,30.452 8.98,60.245 24.721,86.318 l 147.149,-88.842 0,-171.888 z"
       style="fill:#ff0000;fill-opacity:1;stroke:none;stroke-linecap:butt;stroke-linejoin:round"
       id="path14"
       inkscape:connector-curvature="0" />
  </g>
  <g
     id="patch_3"
     style="stroke-linecap:butt;stroke-linejoin:round"
     transform="matrix(1.4407823,0,0,1.4407823,-125.6618,-15.513081)">
    <path
       clip-path="url(#p7ff5b81e1d)"
       d="m 147.294,303.93 c 13.755,22.782 32.615,42.062 55.09,56.316 22.474,14.253 47.954,23.094 74.427,25.824 26.472,2.73 53.221,-0.725 78.131,-10.092 24.91,-9.367 47.308,-24.392 65.423,-43.888 L 294.443,215.088 147.294,303.93 Z"
       style="fill:#00ff7f;fill-opacity:1;stroke:none;stroke-linecap:butt;stroke-linejoin:round"
       id="path17"
       inkscape:connector-curvature="0" />
  </g>
  <g
     id="patch_4"
     style="stroke-linecap:butt;stroke-linejoin:round"
     transform="matrix(1.4407823,0,0,1.4407823,-125.6618,-15.513081)">
    <path
       clip-path="url(#p7ff5b81e1d)"
       d="m 420.365,332.09 c 18.986,-20.433 32.716,-45.184 40,-72.108 7.285,-26.924 7.909,-55.221 1.816,-82.439 L 294.443,215.088 420.365,332.09 Z"
       style="fill:#007fff;fill-opacity:1;stroke:none;stroke-linecap:butt;stroke-linejoin:round"
       id="path20"
       inkscape:connector-curvature="0" />
  </g>
  <g
     id="patch_5"
     style="stroke-linecap:butt;stroke-linejoin:round"
     transform="matrix(1.4407823,0,0,1.4407823,-91.052754,-56.17871)">
    <path
       clip-path="url(#p7ff5b81e1d)"
       d="M 462.181,177.543 C 453.65,139.43 432.379,105.34 401.896,80.9257 371.412,56.511 333.499,43.2 294.443,43.2 l 0,171.888 167.738,-37.545 z"
       style="fill:#780078;fill-opacity:1;stroke:none;stroke-linecap:butt;stroke-linejoin:round"
       id="path23"
       inkscape:connector-curvature="0" />
  </g>
  <g
     id="matplotlib.axis_1"
     style="stroke-linecap:butt;stroke-linejoin:round"
     transform="matrix(1.4407823,0,0,1.4407823,-125.6618,-15.513081)" />
  <g
     id="matplotlib.axis_2"
     style="stroke-linecap:butt;stroke-linejoin:round"
     transform="matrix(1.4407823,0,0,1.4407823,-125.6618,-15.513081)" />
  <defs
     id="defs27">
    <clipPath
       id="p7ff5b81e1d"
       style="stroke-linecap:butt;stroke-linejoin:round">
      <rect
         height="345.60001"
         width="446.39999"
         x="72"
         y="43.200001"
         id="rect30"
         style="stroke-linecap:butt;stroke-linejoin:round" />
    </clipPath>
  </defs>
</svg>
