<?xml version="1.0" encoding="UTF-8" standalone="no"?>
<!-- Created with matplotlib (http://matplotlib.org/) -->

<svg
   xmlns:dc="http://purl.org/dc/elements/1.1/"
   xmlns:cc="http://creativecommons.org/ns#"
   xmlns:rdf="http://www.w3.org/1999/02/22-rdf-syntax-ns#"
   xmlns:svg="http://www.w3.org/2000/svg"
   xmlns="http://www.w3.org/2000/svg"
   xmlns:sodipodi="http://sodipodi.sourceforge.net/DTD/sodipodi-0.dtd"
   xmlns:inkscape="http://www.inkscape.org/namespaces/inkscape"
   height="432pt"
   version="1.1"
   viewBox="0 0 576 432"
   width="576pt"
   id="svg2"
   inkscape:version="0.91 r"
   sodipodi:docname="dividedwingchart.svg">
  <metadata
     id="metadata38">
    <rdf:RDF>
      <cc:Work
         rdf:about="">
        <dc:format>image/svg+xml</dc:format>
        <dc:type
           rdf:resource="http://purl.org/dc/dcmitype/StillImage" />
        <dc:title></dc:title>
      </cc:Work>
    </rdf:RDF>
  </metadata>
  <sodipodi:namedview
     pagecolor="#ffffff"
     bordercolor="#666666"
     borderopacity="1"
     objecttolerance="10"
     gridtolerance="10"
     guidetolerance="10"
     inkscape:pageopacity="0"
     inkscape:pageshadow="2"
     inkscape:window-width="1391"
     inkscape:window-height="876"
     id="namedview36"
     showgrid="false"
     inkscape:zoom="0.91388889"
     inkscape:cx="360"
     inkscape:cy="270"
     inkscape:window-x="49"
     inkscape:window-y="24"
     inkscape:window-maximized="1"
     inkscape:current-layer="svg2" />
  <defs
     id="defs4">
    <style
       type="text/css"
       id="style6">
*{stroke-linecap:butt;stroke-linejoin:round;}
  </style>
  </defs>
  <g
     id="figure_1">
    <g
       id="patch_1">
      <path
         d=" M0 432 L576 432 L576 0 L0 0 z "
         style="fill:#ffffff;"
         id="path10" />
    </g>
    <g
       id="axes_1"
       inkscape:export-xdpi="5"
       inkscape:export-ydpi="5">
      <g
         id="patch_2">
        <path
           clip-path="url(#pfc63056da8)"
           d=" M295.2 216 L295.2 216 L295.2 216 L295.2 216 L295.2 216 L295.2 216 L295.2 216 L295.2 216 L295.2 216 L295.2 216 L295.2 216 L295.2 216 L295.2 216 L295.2 216 L295.2 216 L295.2 216 L295.2 216 L295.2 216 L295.2 216 L295.2 216 L295.2 216 L295.2 216 L295.2 216 L295.2 216 L295.2 216 L295.2 216 L295.2 216 L295.2 216 L295.2 216 L295.2 216 L295.2 216 L295.2 216 L295.2 216 L295.2 216 L295.2 216 L295.2 216 L295.2 216 L295.2 216 L295.2 216 L295.2 216 L295.2 216 L295.2 216 L295.2 216 L295.2 216 L295.2 216 L295.2 216 L295.2 216 L295.2 216 L295.2 216 L295.2 216 L295.2 216 L295.2 216 L295.2 216 L295.2 216 L295.2 216 L295.2 216 L295.2 216 L295.2 216 L295.2 216 L295.2 216 L295.2 216 L295.2 216 L295.2 216 L295.2 216 L295.2 216 L295.2 216 L295.2 216 L295.2 216 L295.2 216 L295.2 216 L295.2 216 L295.2 216 L295.2 216 L295.2 216 L295.2 216 L295.2 216 L295.2 216 L295.2 216 L295.2 216 L295.2 216 L295.2 216 L295.2 216 L295.2 216 L295.2 216 L295.2 216 L295.2 216 L295.2 216 L295.2 216 L295.2 216 L295.2 216 L295.2 216 L295.2 216 L295.2 216 L295.2 216 L295.2 216 L295.2 216 L295.2 216 L295.2 216 L295.2 216 L295.2 216 L295.2 216 L293.766 215.035 L292.333 214.071 L290.899 213.106 L289.465 212.141 L288.032 211.177 L286.598 210.212 L285.164 209.247 L283.731 208.283 L282.297 207.318 L280.863 206.354 L279.429 205.389 L277.996 204.424 L276.562 203.46 L275.128 202.495 L273.695 201.53 L272.261 200.566 L270.827 199.601 L269.394 198.636 L267.96 197.672 L266.526 196.707 L265.093 195.742 L263.659 194.778 L262.225 193.813 L260.792 192.849 L259.358 191.884 L257.924 190.919 L256.491 189.955 L255.057 188.99 L253.623 188.025 L252.19 187.061 L250.756 186.096 L249.322 185.131 L247.888 184.167 L246.455 183.202 L245.021 182.237 L243.587 181.273 L242.154 180.308 L240.72 179.343 L239.286 178.379 L237.853 177.414 L236.419 176.45 L234.985 175.485 L233.552 174.52 L232.118 173.556 L230.684 172.591 L229.251 171.626 L227.817 170.662 L226.383 169.697 L224.95 168.732 L223.516 167.768 L222.082 166.803 L220.649 165.838 L219.215 164.874 L217.781 163.909 L216.347 162.945 L214.914 161.98 L213.48 161.015 L212.046 160.051 L210.613 159.086 L209.179 158.121 L207.745 157.157 L206.312 156.192 L204.878 155.227 L203.444 154.263 L202.011 153.298 L200.577 152.333 L199.143 151.369 L197.71 150.404 L196.276 149.439 L194.842 148.475 L193.409 147.51 L191.975 146.546 L190.541 145.581 L189.108 144.616 L187.674 143.652 L186.24 142.687 L184.806 141.722 L183.373 140.758 L181.939 139.793 L180.505 138.828 L179.072 137.864 L177.638 136.899 L176.204 135.934 L174.771 134.97 L173.337 134.005 L171.903 133.041 L170.47 132.076 L169.036 131.111 L167.602 130.147 L166.169 129.182 L164.735 128.217 L163.301 127.253 L161.868 126.288 L160.434 125.323 L159 124.359 L157.567 123.394 L156.133 122.429 L154.699 121.465 L153.265 120.5 L151.832 119.535 L152.783 118.137 L153.747 116.748 L154.725 115.369 L155.716 113.999 L156.721 112.639 L157.739 111.289 L158.77 109.949 L159.815 108.619 L160.872 107.3 L161.942 105.99 L163.025 104.692 L164.12 103.404 L165.228 102.126 L166.349 100.86 L167.482 99.6047 L168.627 98.3606 L169.784 97.1277 L170.953 95.9061 L172.134 94.6961 L173.327 93.4977 L174.532 92.311 L175.748 91.1362 L176.975 89.9733 L178.214 88.8225 L179.464 87.6839 L180.725 86.5575 L181.997 85.4436 L183.28 84.3421 L184.574 83.2533 L185.878 82.1771 L187.193 81.1138 L188.518 80.0634 L189.853 79.026 L191.198 78.0017 L192.554 76.9907 L193.919 75.9929 L195.294 75.0086 L196.678 74.0377 L198.072 73.0805 L199.475 72.1369 L200.887 71.2071 L202.309 70.2912 L203.739 69.3892 L205.178 68.5013 L206.626 67.6275 L208.082 66.7678 L209.546 65.9225 L211.019 65.0916 L212.499 64.2751 L213.988 63.4731 L215.484 62.6857 L216.988 61.913 L218.5 61.1551 L220.019 60.412 L221.545 59.6838 L223.078 58.9706 L224.618 58.2724 L226.165 57.5892 L227.718 56.9213 L229.278 56.2686 L230.844 55.6312 L232.416 55.0091 L233.995 54.4025 L235.579 53.8113 L237.169 53.2357 L238.764 52.6757 L240.365 52.1312 L241.971 51.6025 L243.582 51.0895 L245.199 50.5923 L246.819 50.111 L248.445 49.6455 L250.075 49.196 L251.709 48.7624 L253.348 48.3449 L254.99 47.9434 L256.637 47.558 L258.287 47.1887 L259.941 46.8356 L261.598 46.4986 L263.258 46.1779 L264.921 45.8735 L266.587 45.5854 L268.256 45.3136 L269.928 45.0581 L271.601 44.819 L273.278 44.5962 L274.956 44.3899 L276.636 44.2001 L278.318 44.0266 L280.002 43.8697 L281.687 43.7292 L283.373 43.6052 L285.06 43.4977 L286.749 43.4068 L288.438 43.3324 L290.128 43.2745 L291.818 43.2331 L293.509 43.2083 L295.2 43.2 L295.2 44.928 L295.2 46.656 L295.2 48.384 L295.2 50.112 L295.2 51.84 L295.2 53.568 L295.2 55.296 L295.2 57.024 L295.2 58.752 L295.2 60.48 L295.2 62.208 L295.2 63.936 L295.2 65.664 L295.2 67.392 L295.2 69.12 L295.2 70.848 L295.2 72.576 L295.2 74.304 L295.2 76.032 L295.2 77.76 L295.2 79.488 L295.2 81.216 L295.2 82.944 L295.2 84.672 L295.2 86.4 L295.2 88.128 L295.2 89.856 L295.2 91.584 L295.2 93.312 L295.2 95.04 L295.2 96.768 L295.2 98.496 L295.2 100.224 L295.2 101.952 L295.2 103.68 L295.2 105.408 L295.2 107.136 L295.2 108.864 L295.2 110.592 L295.2 112.32 L295.2 114.048 L295.2 115.776 L295.2 117.504 L295.2 119.232 L295.2 120.96 L295.2 122.688 L295.2 124.416 L295.2 126.144 L295.2 127.872 L295.2 129.6 L295.2 131.328 L295.2 133.056 L295.2 134.784 L295.2 136.512 L295.2 138.24 L295.2 139.968 L295.2 141.696 L295.2 143.424 L295.2 145.152 L295.2 146.88 L295.2 148.608 L295.2 150.336 L295.2 152.064 L295.2 153.792 L295.2 155.52 L295.2 157.248 L295.2 158.976 L295.2 160.704 L295.2 162.432 L295.2 164.16 L295.2 165.888 L295.2 167.616 L295.2 169.344 L295.2 171.072 L295.2 172.8 L295.2 174.528 L295.2 176.256 L295.2 177.984 L295.2 179.712 L295.2 181.44 L295.2 183.168 L295.2 184.896 L295.2 186.624 L295.2 188.352 L295.2 190.08 L295.2 191.808 L295.2 193.536 L295.2 195.264 L295.2 196.992 L295.2 198.72 L295.2 200.448 L295.2 202.176 L295.2 203.904 L295.2 205.632 L295.2 207.36 L295.2 209.088 L295.2 210.816 L295.2 212.544 L295.2 214.272 z "
           style="fill:#780078;stroke:#ffffff;fill-opacity:1"
           id="path14" />
      </g>
      <g
         id="patch_3">
        <path
           clip-path="url(#pfc63056da8)"
           d="m 295.2,216 0,0 0,0 0,0 0,0 0,0 0,0 0,0 0,0 0,0 0,0 0,0 0,0 0,0 0,0 0,0 0,0 0,0 0,0 0,0 0,0 0,0 0,0 0,0 0,0 0,0 0,0 0,0 0,0 0,0 0,0 0,0 0,0 0,0 0,0 0,0 0,0 0,0 0,0 0,0 0,0 0,0 0,0 0,0 0,0 0,0 0,0 0,0 0,0 0,0 0,0 0,0 0,0 0,0 0,0 0,0 0,0 0,0 0,0 0,0 0,0 0,0 0,0 0,0 0,0 0,0 0,0 0,0 0,0 0,0 0,0 0,0 0,0 0,0 0,0 0,0 0,0 0,0 0,0 0,0 0,0 0,0 0,0 0,0 0,0 0,0 0,0 0,0 0,0 0,0 0,0 0,0 0,0 0,0 0,0 0,0 0,0 0,0 0,0 0,0 0,0 -1.682,0.397 -1.682,0.397 -1.681,0.397 -1.682,0.397 -1.682,0.397 -1.682,0.396 -1.682,0.397 -1.681,0.397 -1.682,0.397 -1.682,0.397 -1.682,0.397 -1.682,0.397 -1.681,0.397 -1.682,0.397 -1.682,0.397 -1.682,0.396 -1.682,0.397 -1.681,0.397 -1.682,0.397 -1.682,0.397 -1.682,0.397 -1.682,0.397 -1.681,0.397 -1.682,0.397 -1.682,0.397 -1.682,0.396 -1.682,0.397 -1.681,0.397 -1.682,0.397 -1.682,0.397 -1.682,0.397 -1.682,0.397 -1.681,0.397 -1.682,0.397 -1.682,0.397 -1.682,0.396 -1.682,0.397 -1.681,0.397 -1.682,0.397 -1.682,0.397 -1.682,0.397 -1.682,0.397 -1.681,0.397 -1.682,0.397 -1.682,0.397 -1.682,0.396 -1.682,0.397 -1.681,0.397 -1.682,0.397 -1.682,0.397 -1.682,0.397 -1.682,0.397 -1.681,0.397 -1.682,0.397 -1.682,0.397 -1.682,0.396 -1.682,0.397 -1.681,0.397 -1.682,0.397 -1.682,0.397 -1.682,0.397 -1.682,0.397 -1.681,0.397 -1.682,0.397 -1.682,0.397 -1.682,0.396 -1.682,0.397 -1.681,0.397 -1.682,0.397 -1.682,0.397 -1.682,0.397 -1.682,0.397 -1.681,0.397 -1.682,0.397 -1.682,0.397 -1.682,0.396 -1.682,0.397 -1.681,0.397 -1.682,0.397 -1.682,0.397 -1.682,0.397 -1.682,0.397 -1.681,0.397 -1.682,0.397 -1.682,0.397 -1.682,0.396 -1.682,0.397 -1.681,0.397 -1.682,0.397 -1.682,0.397 -1.682,0.397 -1.682,0.397 -1.681,0.397 -1.682,0.397 -1.682,0.397 -1.682,0.396 -1.682,0.397 -1.681,0.397 -1.682,0.397 -1.682,0.397 -0.321,-1.387 -0.31,-1.39 -0.299,-1.392 -0.287,-1.395 -0.275,-1.397 -0.264,-1.399 -0.252,-1.402 -0.241,-1.403 -0.23,-1.405 -0.217,-1.407 -0.206,-1.409 -0.195,-1.411 -0.183,-1.412 -0.171,-1.414 -0.159,-1.415 -0.148,-1.416 -0.136,-1.417 -0.125,-1.419 -0.113,-1.419 -0.101,-1.42 -0.089,-1.421 -0.078,-1.422 -0.066,-1.423 -0.054,-1.422 -0.043,-1.424 -0.031,-1.423 -0.019,-1.424 -0.007,-1.424 0.004,-1.424 0.017,-1.424 0.027,-1.423 0.04,-1.424 0.051,-1.423 0.063,-1.422 0.075,-1.422 0.087,-1.421 0.098,-1.421 0.11,-1.42 0.121,-1.418 0.134,-1.418 0.145,-1.417 0.156,-1.415 0.168,-1.414 0.18,-1.412 0.192,-1.411 0.203,-1.41 0.215,-1.407 0.226,-1.406 0.238,-1.404 0.25,-1.402 0.261,-1.399 0.272,-1.398 0.284,-1.395 0.296,-1.393 0.307,-1.391 0.319,-1.387 0.329,-1.386 0.342,-1.382 0.352,-1.38 0.364,-1.376 0.376,-1.374 0.387,-1.37 0.397,-1.367 0.41,-1.364 0.42,-1.361 0.432,-1.356 0.443,-1.354 0.454,-1.349 0.465,-1.346 0.476,-1.342 0.487,-1.338 0.498,-1.334 0.509,-1.33 0.52,-1.325 0.531,-1.322 0.542,-1.316 0.553,-1.313 0.563,-1.307 0.574,-1.303 0.585,-1.298 0.596,-1.294 0.606,-1.288 0.617,-1.284 0.628,-1.278 0.638,-1.273 0.648,-1.268 0.659,-1.262 0.669,-1.257 0.68,-1.251 0.689,-1.246 0.7,-1.24 0.711,-1.234 0.72,-1.228 0.731,-1.222 0.74,-1.216 0.751,-1.21 0.76,-1.204 0.771,-1.198 0.78,-1.191 0.79,-1.185 1.433,0.965 1.434,0.965 1.434,0.964 1.434,0.965 1.433,0.965 1.434,0.964 1.434,0.965 1.433,0.965 1.434,0.964 1.434,0.965 1.433,0.965 1.434,0.964 1.434,0.965 1.433,0.965 1.434,0.964 1.434,0.965 1.433,0.964 1.434,0.965 1.434,0.965 1.433,0.964 1.434,0.965 1.434,0.965 1.433,0.964 1.434,0.965 1.434,0.965 1.434,0.964 1.433,0.965 1.434,0.965 1.434,0.964 1.433,0.965 1.434,0.964 1.434,0.965 1.433,0.965 1.434,0.964 1.434,0.965 1.433,0.965 1.434,0.964 1.434,0.965 1.433,0.965 1.434,0.964 1.434,0.965 1.433,0.965 1.434,0.964 1.434,0.965 1.433,0.965 1.434,0.964 1.434,0.965 1.434,0.964 1.433,0.965 1.434,0.965 1.434,0.964 1.433,0.965 1.434,0.965 1.434,0.964 1.433,0.965 1.434,0.965 1.434,0.964 1.433,0.965 1.434,0.965 1.434,0.964 1.433,0.965 1.434,0.964 1.434,0.965 1.433,0.965 1.434,0.964 1.434,0.965 1.433,0.965 1.434,0.964 1.434,0.965 1.434,0.965 1.433,0.964 1.434,0.965 1.434,0.965 1.433,0.964 1.434,0.965 1.434,0.965 1.433,0.964 1.434,0.965 1.434,0.964 1.433,0.965 1.434,0.965 1.434,0.964 1.433,0.965 1.434,0.965 1.434,0.964 1.433,0.965 1.434,0.965 1.434,0.964 1.433,0.965 1.434,0.965 1.434,0.964 1.434,0.965 1.433,0.964 1.434,0.965 1.434,0.965 1.433,0.964 1.434,0.965 1.434,0.965 1.433,0.964 z"
           style="fill:#007fff;stroke:#ffffff;stroke-linecap:butt;stroke-linejoin:round"
           id="path17"
           inkscape:connector-curvature="0" />
      </g>
      <g
         id="patch_4">
        <path
           clip-path="url(#pfc63056da8)"
           d="m 295.2,216 0,0 0,0 0,0 0,0 0,0 0,0 0,0 0,0 0,0 0,0 0,0 0,0 0,0 0,0 0,0 0,0 0,0 0,0 0,0 0,0 0,0 0,0 0,0 0,0 0,0 0,0 0,0 0,0 0,0 0,0 0,0 0,0 0,0 0,0 0,0 0,0 0,0 0,0 0,0 0,0 0,0 0,0 0,0 0,0 0,0 0,0 0,0 0,0 0,0 0,0 0,0 0,0 0,0 0,0 0,0 0,0 0,0 0,0 0,0 0,0 0,0 0,0 0,0 0,0 0,0 0,0 0,0 0,0 0,0 0,0 0,0 0,0 0,0 0,0 0,0 0,0 0,0 0,0 0,0 0,0 0,0 0,0 0,0 0,0 0,0 0,0 0,0 0,0 0,0 0,0 0,0 0,0 0,0 0,0 0,0 0,0 0,0 0,0 0,0 0,0 0,1.728 0,1.728 0,1.728 0,1.728 0,1.728 0,1.728 0,1.728 0,1.728 0,1.728 0,1.728 0,1.728 0,1.728 0,1.728 0,1.728 0,1.728 0,1.728 0,1.728 0,1.728 0,1.728 0,1.728 0,1.728 0,1.728 0,1.728 0,1.728 0,1.728 0,1.728 0,1.728 0,1.728 0,1.728 0,1.728 0,1.728 0,1.728 0,1.728 0,1.728 0,1.728 0,1.728 0,1.728 0,1.728 0,1.728 0,1.728 0,1.728 0,1.728 0,1.728 0,1.728 0,1.728 0,1.728 0,1.728 0,1.728 0,1.728 0,1.728 0,1.728 0,1.728 0,1.728 0,1.728 0,1.728 0,1.728 0,1.728 0,1.728 0,1.728 0,1.728 0,1.728 0,1.728 0,1.728 0,1.728 0,1.728 0,1.728 0,1.728 0,1.728 0,1.728 0,1.728 0,1.728 0,1.728 0,1.728 0,1.728 0,1.728 0,1.728 0,1.728 0,1.728 0,1.728 0,1.728 0,1.728 0,1.728 0,1.728 0,1.728 0,1.728 0,1.728 0,1.728 0,1.728 0,1.728 0,1.728 0,1.728 0,1.728 0,1.728 0,1.728 0,1.728 0,1.728 0,1.728 0,1.728 0,1.728 0,1.728 -2.314,-0.015 -2.313,-0.047 -2.313,-0.077 -2.311,-0.109 -2.31,-0.139 -2.307,-0.17 -2.305,-0.202 -2.302,-0.232 -2.299,-0.262 -2.296,-0.294 -2.291,-0.324 -2.286,-0.355 -2.281,-0.386 -2.277,-0.416 -2.27,-0.446 -2.264,-0.477 -2.258,-0.507 -2.25,-0.537 -2.244,-0.567 -2.235,-0.598 -2.227,-0.627 -2.219,-0.657 -2.209,-0.687 -2.201,-0.716 -2.19,-0.745 -2.18,-0.775 -2.17,-0.804 -2.159,-0.833 -2.147,-0.862 -2.136,-0.89 -2.123,-0.919 -2.111,-0.947 -2.099,-0.976 -2.085,-1.003 -2.071,-1.032 -2.057,-1.059 -2.043,-1.086 -2.028,-1.114 -2.013,-1.14 -1.998,-1.168 -1.982,-1.194 -1.966,-1.221 -1.949,-1.247 -1.932,-1.272 -1.915,-1.299 -1.898,-1.324 -1.879,-1.35 -1.862,-1.374 -1.842,-1.399 -1.824,-1.424 -1.805,-1.448 -1.785,-1.472 -1.765,-1.496 -1.745,-1.52 -1.725,-1.542 -1.704,-1.566 -1.682,-1.588 -1.662,-1.611 -1.639,-1.633 -1.618,-1.654 -1.595,-1.676 -1.572,-1.698 -1.55,-1.718 -1.527,-1.739 -1.503,-1.759 -1.479,-1.779 -1.456,-1.798 -1.431,-1.818 -1.407,-1.837 -1.382,-1.856 -1.357,-1.874 -1.332,-1.892 -1.307,-1.91 -1.281,-1.927 -1.254,-1.944 -1.229,-1.961 -1.203,-1.976 -1.175,-1.993 -1.149,-2.009 -1.122,-2.023 -1.095,-2.039 -1.068,-2.053 -1.039,-2.067 -1.012,-2.08 -0.985,-2.095 -0.956,-2.107 -0.927,-2.119 -0.899,-2.132 -0.871,-2.144 -0.842,-2.156 -0.813,-2.166 -0.783,-2.177 -0.755,-2.187 -0.725,-2.198 -0.696,-2.206 -0.666,-2.216 -0.636,-2.225 -0.607,-2.233 -0.577,-2.241 -0.546,-2.248 1.682,-0.397 1.682,-0.397 1.681,-0.397 1.682,-0.397 1.682,-0.396 1.682,-0.397 1.682,-0.397 1.681,-0.397 1.682,-0.397 1.682,-0.397 1.682,-0.397 1.682,-0.397 1.681,-0.397 1.682,-0.397 1.682,-0.396 1.682,-0.397 1.682,-0.397 1.681,-0.397 1.682,-0.397 1.682,-0.397 1.682,-0.397 1.682,-0.397 1.681,-0.397 1.682,-0.397 1.682,-0.396 1.682,-0.397 1.682,-0.397 1.681,-0.397 1.682,-0.397 1.682,-0.397 1.682,-0.397 1.682,-0.397 1.681,-0.397 1.682,-0.397 1.682,-0.396 1.682,-0.397 1.682,-0.397 1.681,-0.397 1.682,-0.397 1.682,-0.397 1.682,-0.397 1.682,-0.397 1.681,-0.397 1.682,-0.397 1.682,-0.396 1.682,-0.397 1.682,-0.397 1.681,-0.397 1.682,-0.397 1.682,-0.397 1.682,-0.397 1.682,-0.397 1.681,-0.397 1.682,-0.397 1.682,-0.396 1.682,-0.397 1.682,-0.397 1.681,-0.397 1.682,-0.397 1.682,-0.397 1.682,-0.397 1.682,-0.397 1.681,-0.397 1.682,-0.397 1.682,-0.396 1.682,-0.397 1.682,-0.397 1.681,-0.397 1.682,-0.397 1.682,-0.397 1.682,-0.397 1.682,-0.397 1.681,-0.397 1.682,-0.397 1.682,-0.396 1.682,-0.397 1.682,-0.397 1.681,-0.397 1.682,-0.397 1.682,-0.397 1.682,-0.397 1.682,-0.397 1.681,-0.397 1.682,-0.397 1.682,-0.396 1.682,-0.397 1.682,-0.397 1.681,-0.397 1.682,-0.397 1.682,-0.397 1.682,-0.397 1.682,-0.397 1.681,-0.397 1.682,-0.397 1.682,-0.396 1.682,-0.397 1.682,-0.397 1.681,-0.397 1.682,-0.397 z"
           style="fill:#ff0000;stroke:#ffffff;stroke-linecap:butt;stroke-linejoin:round"
           id="path20"
           inkscape:connector-curvature="0" />
      </g>
      <g
         id="patch_5">
        <path
           clip-path="url(#pfc63056da8)"
           d="m 295.2,216 0,0 0,0 0,0 0,0 0,0 0,0 0,0 0,0 0,0 0,0 0,0 0,0 0,0 0,0 0,0 0,0 0,0 0,0 0,0 0,0 0,0 0,0 0,0 0,0 0,0 0,0 0,0 0,0 0,0 0,0 0,0 0,0 0,0 0,0 0,0 0,0 0,0 0,0 0,0 0,0 0,0 0,0 0,0 0,0 0,0 0,0 0,0 0,0 0,0 0,0 0,0 0,0 0,0 0,0 0,0 0,0 0,0 0,0 0,0 0,0 0,0 0,0 0,0 0,0 0,0 0,0 0,0 0,0 0,0 0,0 0,0 0,0 0,0 0,0 0,0 0,0 0,0 0,0 0,0 0,0 0,0 0,0 0,0 0,0 0,0 0,0 0,0 0,0 0,0 0,0 0,0 0,0 0,0 0,0 0,0 0,0 0,0 0,0 0,0 0,0 0,-1.382 0,-1.383 0,-1.382 0,-1.383 0,-1.382 0,-1.382 0,-1.383 0,-1.382 0,-1.383 0,-1.382 0,-1.382 0,-1.383 0,-1.382 0,-1.383 0,-1.382 0,-1.382 0,-1.383 0,-1.382 0,-1.383 0,-1.382 0,-1.382 0,-1.383 0,-1.382 0,-1.383 0,-1.382 0,-1.382 0,-1.383 0,-1.382 0,-1.383 0,-1.382 0,-1.382 0,-1.383 0,-1.382 0,-1.383 0,-1.382 0,-1.382 0,-1.383 0,-1.382 0,-1.383 0,-1.382 0,-1.382 0,-1.383 0,-1.382 0,-1.383 0,-1.382 0,-1.382 0,-1.383 0,-1.382 0,-1.383 0,-1.382 0,-1.382 0,-1.383 0,-1.382 0,-1.383 0,-1.382 0,-1.382 0,-1.383 0,-1.382 0,-1.383 0,-1.382 0,-1.382 0,-1.383 0,-1.382 0,-1.383 0,-1.382 0,-1.382 0,-1.383 0,-1.382 0,-1.383 0,-1.382 0,-1.382 0,-1.383 0,-1.382 0,-1.383 0,-1.382 0,-1.382 0,-1.383 0,-1.382 0,-1.383 0,-1.382 0,-1.382 0,-1.383 0,-1.382 0,-1.3826 0,-1.3824 0,-1.3824 0,-1.3824 0,-1.3824 0,-1.3824 0,-1.3824 0,-1.3824 0,-1.3824 0,-1.3824 0,-1.3824 0,-1.3824 0,-1.3824 0,-1.3824 0,-1.3824 0,-1.3824 0,-1.3824 2.369,0.0203 2.368,0.0609 2.366,0.1014 2.365,0.142 2.362,0.1825 2.358,0.2229 2.354,0.2633 2.35,0.3036 2.343,0.3439 2.338,0.3839 2.331,0.4239 2.323,0.4638 2.314,0.5035 2.306,0.5432 2.296,0.5825 2.286,0.6218 2.275,0.6609 2.263,0.6998 2.251,0.7384 2.237,0.7769 2.225,0.8152 2.21,0.8531 2.194,0.8909 2.18,0.9283 2.163,0.9656 2.146,1.0025 2.129,1.0391 2.111,1.0754 2.092,1.1114 2.072,1.1472 2.053,1.1824 2.032,1.2175 2.011,1.2521 1.989,1.2859 1.967,1.321 1.944,1.354 1.92,1.386 1.896,1.42 1.872,1.452 1.847,1.484 1.821,1.515 1.794,1.546 1.768,1.577 1.741,1.606 1.713,1.637 1.684,1.665 1.656,1.694 1.627,1.722 1.596,1.75 1.567,1.777 1.536,1.804 1.504,1.829 1.474,1.855 1.441,1.88 1.409,1.905 1.375,1.928 1.343,1.951 1.309,1.975 1.275,1.996 1.241,2.018 1.206,2.039 1.17,2.06 1.136,2.079 1.099,2.098 1.063,2.117 1.027,2.134 0.99,2.152 0.954,2.169 0.916,2.184 0.878,2.2 0.84,2.215 0.803,2.229 0.764,2.242 0.725,2.255 0.687,2.267 0.648,2.279 0.609,2.289 0.569,2.299 0.53,2.309 0.491,2.318 0.45,2.325 0.411,2.333 0.37,2.34 0.331,2.346 0.29,2.351 0.25,2.355 0.209,2.36 0.169,2.363 0.129,2.365 0.088,2.367 0.047,2.369 0.007,2.369 -0.034,2.368 -0.074,2.368 -0.115,2.366 -0.156,2.364 -0.196,2.36 -0.236,2.357 -0.277,2.353 -0.317,2.348 -1.368,-0.197 -1.369,-0.197 -1.368,-0.197 -1.368,-0.196 -1.369,-0.197 -1.368,-0.197 -1.368,-0.197 -1.369,-0.196 -1.368,-0.197 -1.368,-0.197 -1.369,-0.196 -1.368,-0.197 -1.368,-0.197 -1.369,-0.197 -1.368,-0.196 -1.368,-0.197 -1.369,-0.197 -1.368,-0.197 -1.368,-0.196 -1.369,-0.197 -1.368,-0.197 -1.368,-0.197 -1.369,-0.196 -1.368,-0.197 -1.368,-0.197 -1.369,-0.197 -1.368,-0.196 -1.368,-0.197 -1.369,-0.197 -1.368,-0.196 -1.368,-0.197 -1.369,-0.197 -1.368,-0.197 -1.368,-0.196 -1.369,-0.197 -1.368,-0.197 -1.368,-0.197 -1.369,-0.196 -1.368,-0.197 -1.368,-0.197 -1.369,-0.197 -1.368,-0.196 -1.368,-0.197 -1.369,-0.197 -1.368,-0.197 -1.368,-0.196 -1.369,-0.197 -1.368,-0.197 -1.368,-0.196 -1.369,-0.197 -1.368,-0.197 -1.368,-0.197 -1.369,-0.196 -1.368,-0.197 -1.368,-0.197 -1.369,-0.197 -1.368,-0.196 -1.368,-0.197 -1.369,-0.197 -1.368,-0.197 -1.368,-0.196 -1.368,-0.197 -1.369,-0.197 -1.368,-0.197 -1.368,-0.196 -1.369,-0.197 -1.368,-0.197 -1.368,-0.196 -1.369,-0.197 -1.368,-0.197 -1.368,-0.197 -1.369,-0.196 -1.368,-0.197 -1.368,-0.197 -1.369,-0.197 -1.368,-0.196 -1.368,-0.197 -1.369,-0.197 -1.368,-0.197 -1.368,-0.196 -1.369,-0.197 -1.368,-0.197 -1.368,-0.196 -1.369,-0.197 -1.368,-0.197 -1.368,-0.197 -1.369,-0.196 -1.368,-0.197 -1.368,-0.197 -1.369,-0.197 -1.368,-0.196 -1.368,-0.197 -1.369,-0.197 -1.368,-0.197 -1.368,-0.196 -1.369,-0.197 -1.368,-0.197 -1.368,-0.197 -1.369,-0.196 z"
           style="fill:#780078;stroke:#ffffff;stroke-linecap:butt;stroke-linejoin:round"
           id="path23"
           inkscape:connector-curvature="0" />
      </g>
      <g
         id="patch_6">
        <path
           clip-path="url(#pfc63056da8)"
           d="m 295.2,216 0,0 0,0 0,0 0,0 0,0 0,0 0,0 0,0 0,0 0,0 0,0 0,0 0,0 0,0 0,0 0,0 0,0 0,0 0,0 0,0 0,0 0,0 0,0 0,0 0,0 0,0 0,0 0,0 0,0 0,0 0,0 0,0 0,0 0,0 0,0 0,0 0,0 0,0 0,0 0,0 0,0 0,0 0,0 0,0 0,0 0,0 0,0 0,0 0,0 0,0 0,0 0,0 0,0 0,0 0,0 0,0 0,0 0,0 0,0 0,0 0,0 0,0 0,0 0,0 0,0 0,0 0,0 0,0 0,0 0,0 0,0 0,0 0,0 0,0 0,0 0,0 0,0 0,0 0,0 0,0 0,0 0,0 0,0 0,0 0,0 0,0 0,0 0,0 0,0 0,0 0,0 0,0 0,0 0,0 0,0 0,0 0,0 0,0 0,0 0,0 1.368,0.197 1.369,0.196 1.368,0.197 1.368,0.197 1.369,0.197 1.368,0.196 1.368,0.197 1.369,0.197 1.368,0.197 1.368,0.196 1.369,0.197 1.368,0.197 1.368,0.197 1.369,0.196 1.368,0.197 1.368,0.197 1.369,0.197 1.368,0.196 1.368,0.197 1.369,0.197 1.368,0.196 1.368,0.197 1.369,0.197 1.368,0.197 1.368,0.196 1.369,0.197 1.368,0.197 1.368,0.197 1.369,0.196 1.368,0.197 1.368,0.197 1.369,0.197 1.368,0.196 1.368,0.197 1.369,0.197 1.368,0.196 1.368,0.197 1.369,0.197 1.368,0.197 1.368,0.196 1.368,0.197 1.369,0.197 1.368,0.197 1.368,0.196 1.369,0.197 1.368,0.197 1.368,0.197 1.369,0.196 1.368,0.197 1.368,0.197 1.369,0.197 1.368,0.196 1.368,0.197 1.369,0.197 1.368,0.196 1.368,0.197 1.369,0.197 1.368,0.197 1.368,0.196 1.369,0.197 1.368,0.197 1.368,0.197 1.369,0.196 1.368,0.197 1.368,0.197 1.369,0.197 1.368,0.196 1.368,0.197 1.369,0.197 1.368,0.197 1.368,0.196 1.369,0.197 1.368,0.197 1.368,0.196 1.369,0.197 1.368,0.197 1.368,0.197 1.369,0.196 1.368,0.197 1.368,0.197 1.369,0.197 1.368,0.196 1.368,0.197 1.369,0.197 1.368,0.197 1.368,0.196 1.369,0.197 1.368,0.197 1.368,0.197 1.369,0.196 1.368,0.197 1.368,0.197 1.369,0.196 1.368,0.197 1.368,0.197 1.369,0.197 1.368,0.196 1.368,0.197 1.369,0.197 1.368,0.197 -0.028,0.195 -0.029,0.195 -0.029,0.196 -0.029,0.195 -0.029,0.195 -0.03,0.195 -0.03,0.195 -0.03,0.195 -0.03,0.196 -0.031,0.195 -0.031,0.194 -0.031,0.195 -0.032,0.195 -0.032,0.195 -0.032,0.195 -0.032,0.195 -0.033,0.194 -0.033,0.195 -0.033,0.194 -0.034,0.195 -0.033,0.194 -0.035,0.195 -0.034,0.194 -0.035,0.195 -0.034,0.194 -0.036,0.194 -0.035,0.194 -0.036,0.195 -0.036,0.194 -0.036,0.194 -0.037,0.194 -0.037,0.194 -0.037,0.193 -0.037,0.194 -0.038,0.194 -0.038,0.194 -0.038,0.193 -0.039,0.194 -0.038,0.194 -0.039,0.193 -0.04,0.194 -0.039,0.193 -0.04,0.193 -0.04,0.194 -0.041,0.193 -0.041,0.193 -0.041,0.193 -0.041,0.193 -0.041,0.193 -0.042,0.193 -0.042,0.193 -0.043,0.193 -0.042,0.192 -0.043,0.193 -0.043,0.193 -0.044,0.192 -0.044,0.193 -0.044,0.192 -0.044,0.193 -0.045,0.192 -0.044,0.192 -0.046,0.192 -0.045,0.192 -0.046,0.193 -0.046,0.191 -0.046,0.192 -0.046,0.192 -0.047,0.192 -0.047,0.192 -0.047,0.191 -0.048,0.192 -0.048,0.192 -0.048,0.191 -0.048,0.191 -0.049,0.192 -0.049,0.191 -0.049,0.191 -0.05,0.191 -0.05,0.191 -0.05,0.191 -0.05,0.191 -0.051,0.191 -0.05,0.191 -0.052,0.19 -0.051,0.191 -0.052,0.19 -0.052,0.191 -0.052,0.19 -0.052,0.19 -0.053,0.191 -0.053,0.19 -0.053,0.19 -0.054,0.19 -0.054,0.19 -0.054,0.19 -0.054,0.189 -0.055,0.19 -0.055,0.19 -0.055,0.189 -0.056,0.19 -1.326,-0.39 -1.326,-0.389 -1.327,-0.39 -1.326,-0.389 -1.327,-0.39 -1.326,-0.389 -1.327,-0.39 -1.326,-0.389 -1.326,-0.389 -1.327,-0.39 -1.326,-0.389 -1.327,-0.39 -1.326,-0.389 -1.326,-0.39 -1.327,-0.389 -1.326,-0.39 -1.327,-0.389 -1.326,-0.39 -1.326,-0.389 -1.327,-0.39 -1.326,-0.389 -1.327,-0.39 -1.326,-0.389 -1.326,-0.39 -1.327,-0.389 -1.326,-0.389 -1.327,-0.39 -1.326,-0.389 -1.326,-0.39 -1.327,-0.389 -1.326,-0.39 -1.327,-0.389 -1.326,-0.39 -1.326,-0.389 -1.327,-0.39 -1.326,-0.389 -1.327,-0.39 -1.326,-0.389 -1.326,-0.39 -1.327,-0.389 -1.326,-0.389 -1.327,-0.39 -1.326,-0.389 -1.326,-0.39 -1.327,-0.389 -1.326,-0.39 -1.327,-0.389 -1.326,-0.39 -1.326,-0.389 -1.327,-0.39 -1.326,-0.389 -1.327,-0.39 -1.326,-0.389 -1.326,-0.39 -1.327,-0.389 -1.326,-0.389 -1.327,-0.39 -1.326,-0.389 -1.326,-0.39 -1.327,-0.389 -1.326,-0.39 -1.327,-0.389 -1.326,-0.39 -1.326,-0.389 -1.327,-0.39 -1.326,-0.389 -1.327,-0.39 -1.326,-0.389 -1.327,-0.39 -1.326,-0.389 -1.326,-0.389 -1.327,-0.39 -1.326,-0.389 -1.327,-0.39 -1.326,-0.389 -1.326,-0.39 -1.327,-0.389 -1.326,-0.39 -1.327,-0.389 -1.326,-0.39 -1.326,-0.389 -1.327,-0.39 -1.326,-0.389 -1.327,-0.39 -1.326,-0.389 -1.326,-0.389 -1.327,-0.39 -1.326,-0.389 -1.327,-0.39 -1.326,-0.389 -1.326,-0.39 -1.327,-0.389 -1.326,-0.39 -1.327,-0.389 -1.326,-0.39 -1.326,-0.389 -1.327,-0.39 -1.326,-0.389 -1.327,-0.39 z"
           style="fill:#007fff;stroke:#ffffff;stroke-linecap:butt;stroke-linejoin:round"
           id="path26"
           inkscape:connector-curvature="0" />
      </g>
      <g
         id="patch_7">
        <path
           clip-path="url(#pfc63056da8)"
           d="m 295.2,216 0,0 0,0 0,0 0,0 0,0 0,0 0,0 0,0 0,0 0,0 0,0 0,0 0,0 0,0 0,0 0,0 0,0 0,0 0,0 0,0 0,0 0,0 0,0 0,0 0,0 0,0 0,0 0,0 0,0 0,0 0,0 0,0 0,0 0,0 0,0 0,0 0,0 0,0 0,0 0,0 0,0 0,0 0,0 0,0 0,0 0,0 0,0 0,0 0,0 0,0 0,0 0,0 0,0 0,0 0,0 0,0 0,0 0,0 0,0 0,0 0,0 0,0 0,0 0,0 0,0 0,0 0,0 0,0 0,0 0,0 0,0 0,0 0,0 0,0 0,0 0,0 0,0 0,0 0,0 0,0 0,0 0,0 0,0 0,0 0,0 0,0 0,0 0,0 0,0 0,0 0,0 0,0 0,0 0,0 0,0 0,0 0,0 0,0 0,0 0,0 1.326,0.389 1.327,0.39 1.326,0.389 1.327,0.39 1.326,0.389 1.326,0.39 1.327,0.389 1.326,0.39 1.327,0.389 1.326,0.39 1.326,0.389 1.327,0.39 1.326,0.389 1.327,0.39 1.326,0.389 1.326,0.389 1.327,0.39 1.326,0.389 1.327,0.39 1.326,0.389 1.326,0.39 1.327,0.389 1.326,0.39 1.327,0.389 1.326,0.39 1.326,0.389 1.327,0.39 1.326,0.389 1.327,0.39 1.326,0.389 1.326,0.389 1.327,0.39 1.326,0.389 1.327,0.39 1.326,0.389 1.327,0.39 1.326,0.389 1.326,0.39 1.327,0.389 1.326,0.39 1.327,0.389 1.326,0.39 1.326,0.389 1.327,0.39 1.326,0.389 1.327,0.389 1.326,0.39 1.326,0.389 1.327,0.39 1.326,0.389 1.327,0.39 1.326,0.389 1.326,0.39 1.327,0.389 1.326,0.39 1.327,0.389 1.326,0.39 1.326,0.389 1.327,0.39 1.326,0.389 1.327,0.389 1.326,0.39 1.326,0.389 1.327,0.39 1.326,0.389 1.327,0.39 1.326,0.389 1.326,0.39 1.327,0.389 1.326,0.39 1.327,0.389 1.326,0.39 1.326,0.389 1.327,0.39 1.326,0.389 1.327,0.389 1.326,0.39 1.326,0.389 1.327,0.39 1.326,0.389 1.327,0.39 1.326,0.389 1.326,0.39 1.327,0.389 1.326,0.39 1.327,0.389 1.326,0.39 1.326,0.389 1.327,0.39 1.326,0.389 1.327,0.39 1.326,0.389 1.326,0.389 1.327,0.39 1.326,0.389 1.327,0.39 1.326,0.389 1.327,0.39 1.326,0.389 1.326,0.39 -0.511,1.701 -0.533,1.695 -0.556,1.688 -0.576,1.68 -0.598,1.673 -0.62,1.665 -0.641,1.657 -0.662,1.649 -0.684,1.639 -0.704,1.632 -0.726,1.621 -0.746,1.613 -0.766,1.602 -0.788,1.593 -0.807,1.582 -0.828,1.572 -0.849,1.562 -0.868,1.55 -0.888,1.538 -0.907,1.528 -0.928,1.515 -0.946,1.504 -0.966,1.491 -0.985,1.479 -1.004,1.465 -1.022,1.453 -1.042,1.44 -1.059,1.426 -1.078,1.412 -1.096,1.399 -1.114,1.384 -1.131,1.369 -1.149,1.356 -1.167,1.34 -1.183,1.325 -1.2,1.31 -1.218,1.294 -1.233,1.278 -1.25,1.263 -1.266,1.246 -1.282,1.23 -1.298,1.214 -1.313,1.196 -1.329,1.18 -1.343,1.163 -1.359,1.145 -1.373,1.127 -1.387,1.11 -1.401,1.092 -1.416,1.074 -1.429,1.055 -1.442,1.037 -1.456,1.019 -1.469,1 -1.481,0.98 -1.494,0.962 -1.506,0.942 -1.519,0.923 -1.529,0.903 -1.542,0.884 -1.552,0.864 -1.564,0.843 -1.574,0.824 -1.585,0.803 -1.595,0.783 -1.605,0.762 -1.614,0.741 -1.624,0.721 -1.633,0.7 -1.642,0.679 -1.651,0.657 -1.658,0.636 -1.667,0.615 -1.675,0.594 -1.682,0.572 -1.689,0.55 -1.696,0.528 -1.703,0.507 -1.71,0.485 -1.715,0.462 -1.721,0.441 -1.727,0.418 -1.732,0.397 -1.736,0.374 -1.742,0.351 -1.746,0.329 -1.75,0.307 -1.754,0.284 -1.757,0.262 -1.76,0.239 -1.764,0.216 -1.766,0.194 -1.768,0.171 -1.771,0.148 -1.772,0.126 -1.774,0.102 -1.774,0.08 -1.776,0.057 -1.776,0.035 -1.777,0.011 0,-1.382 0,-1.383 0,-1.382 0,-1.383 0,-1.382 0,-1.382 0,-1.383 0,-1.382 0,-1.383 0,-1.382 0,-1.382 0,-1.383 0,-1.382 0,-1.383 0,-1.382 0,-1.382 0,-1.383 0,-1.382 0,-1.383 0,-1.382 0,-1.382 0,-1.383 0,-1.382 0,-1.383 0,-1.382 0,-1.382 0,-1.383 0,-1.382 0,-1.383 0,-1.382 0,-1.382 0,-1.383 0,-1.382 0,-1.383 0,-1.382 0,-1.382 0,-1.383 0,-1.382 0,-1.383 0,-1.382 0,-1.382 0,-1.383 0,-1.382 0,-1.383 0,-1.382 0,-1.382 0,-1.383 0,-1.382 0,-1.383 0,-1.382 0,-1.382 0,-1.383 0,-1.382 0,-1.383 0,-1.382 0,-1.382 0,-1.383 0,-1.382 0,-1.383 0,-1.382 0,-1.382 0,-1.383 0,-1.382 0,-1.383 0,-1.382 0,-1.382 0,-1.383 0,-1.382 0,-1.383 0,-1.382 0,-1.382 0,-1.383 0,-1.382 0,-1.383 0,-1.382 0,-1.382 0,-1.383 0,-1.382 0,-1.383 0,-1.382 0,-1.382 0,-1.383 0,-1.382 0,-1.383 0,-1.382 0,-1.382 0,-1.383 0,-1.382 0,-1.383 0,-1.382 0,-1.382 0,-1.383 0,-1.382 0,-1.383 0,-1.382 0,-1.382 0,-1.383 0,-1.382 0,-1.383 z"
           style="fill:#ff0000;stroke:#ffffff;stroke-linecap:butt;stroke-linejoin:round"
           id="path29"
           inkscape:connector-curvature="0" />
      </g>
    </g>
  </g>
  <defs
     id="defs31">
    <clipPath
       id="pfc63056da8">
      <path
         d=" M295.2 388.8 C341.027 388.8 384.983 370.593 417.388 338.188 C449.793 305.783 468 261.827 468 216 C468 170.173 449.793 126.217 417.388 93.8119 C384.983 61.4073 341.027 43.2 295.2 43.2 C249.373 43.2 205.417 61.4073 173.012 93.8119 C140.607 126.217 122.4 170.173 122.4 216 C122.4 261.827 140.607 305.783 173.012 338.188 C205.417 370.593 249.373 388.8 295.2 388.8 z "
         id="path34" />
    </clipPath>
  </defs>
</svg>
